<svg width="24" height="24" viewBox="0 0 24 24" fill="none" xmlns="http://www.w3.org/2000/svg">
<path d="M7.2 6.12V7.12C7.55567 7.12 7.88457 6.93109 8.06378 6.62387L7.2 6.12ZM8.88 3.24V2.24C8.52433 2.24 8.19543 2.42891 8.01622 2.73613L8.88 3.24ZM15.12 3.24L15.9838 2.73613C15.8046 2.42891 15.4757 2.24 15.12 2.24V3.24ZM16.8 6.12L15.9362 6.62387C16.1154 6.93109 16.4443 7.12 16.8 7.12V6.12ZM3.4 18.36V8.52H1.4V18.36H3.4ZM4.8 7.12H7.2V5.12H4.8V7.12ZM8.06378 6.62387L9.74378 3.74387L8.01622 2.73613L6.33622 5.61613L8.06378 6.62387ZM8.88 4.24H15.12V2.24H8.88V4.24ZM14.2562 3.74387L15.9362 6.62387L17.6638 5.61613L15.9838 2.73613L14.2562 3.74387ZM16.8 7.12H19.2V5.12H16.8V7.12ZM20.6 8.52V18.36H22.6V8.52H20.6ZM20.6 18.36C20.6 19.1332 19.9732 19.76 19.2 19.76V21.76C21.0778 21.76 22.6 20.2378 22.6 18.36H20.6ZM19.2 7.12C19.9732 7.12 20.6 7.7468 20.6 8.52H22.6C22.6 6.64223 21.0778 5.12 19.2 5.12V7.12ZM3.4 8.52C3.4 7.7468 4.0268 7.12 4.8 7.12V5.12C2.92223 5.12 1.4 6.64223 1.4 8.52H3.4ZM4.8 19.76C4.0268 19.76 3.4 19.1332 3.4 18.36H1.4C1.4 20.2378 2.92223 21.76 4.8 21.76V19.76ZM14.6 12.84C14.6 14.2759 13.4359 15.44 12 15.44V17.44C14.5405 17.44 16.6 15.3805 16.6 12.84H14.6ZM12 15.44C10.5641 15.44 9.4 14.2759 9.4 12.84H7.4C7.4 15.3805 9.45949 17.44 12 17.44V15.44ZM9.4 12.84C9.4 11.4041 10.5641 10.24 12 10.24V8.24C9.45949 8.24 7.4 10.2995 7.4 12.84H9.4ZM12 10.24C13.4359 10.24 14.6 11.4041 14.6 12.84H16.6C16.6 10.2995 14.5405 8.24 12 8.24V10.24ZM19.2 19.76H4.8V21.76H19.2V19.76Z" fill="black"/>
</svg>
