<svg width="24" height="24" viewBox="0 0 24 24" fill="none" xmlns="http://www.w3.org/2000/svg">
<path d="M21.93 6.76001L22.6578 6.94128L22.6593 6.93504L21.93 6.76001ZM18.56 20.29L17.8322 20.1088L17.8303 20.1166L18.56 20.29ZM1.09999 19.0699L0.383907 18.847L0.383695 18.8476L1.09999 19.0699ZM5.30998 5.55005L6.02607 5.77303L6.02665 5.77115L5.30998 5.55005ZM21.82 5.33997L21.1267 5.62596L21.1302 5.63457L21.134 5.64309L21.82 5.33997ZM16 21.25C15.5858 21.25 15.25 21.5858 15.25 22C15.25 22.4142 15.5858 22.75 16 22.75V21.25ZM22.99 19.62L23.7382 19.5678L23.738 19.5656L22.99 19.62ZM22.748 5.94563C22.718 5.5325 22.3588 5.22194 21.9456 5.25197C21.5325 5.282 21.2219 5.64125 21.252 6.05437L22.748 5.94563ZM8.95083 6.20446C8.85388 6.60717 9.10174 7.01222 9.50445 7.10917C9.90716 7.20612 10.3122 6.95826 10.4092 6.55555L8.95083 6.20446ZM11.4492 2.2356C11.5461 1.83289 11.2983 1.42784 10.8955 1.33089C10.4928 1.23394 10.0878 1.48181 9.99083 1.88451L11.4492 2.2356ZM15.647 6.23125C15.5593 6.63608 15.8164 7.03534 16.2212 7.12302C16.6261 7.2107 17.0253 6.9536 17.113 6.54878L15.647 6.23125ZM18.053 2.20881C18.1407 1.80398 17.8836 1.40473 17.4788 1.31705C17.0739 1.22936 16.6747 1.48646 16.587 1.89129L18.053 2.20881ZM7.70001 11.25C7.2858 11.25 6.95001 11.5858 6.95001 12C6.95001 12.4142 7.2858 12.75 7.70001 12.75V11.25ZM15.7 12.75C16.1142 12.75 16.45 12.4142 16.45 12C16.45 11.5858 16.1142 11.25 15.7 11.25V12.75ZM6.70001 15.25C6.2858 15.25 5.95001 15.5858 5.95001 16C5.95001 16.4142 6.2858 16.75 6.70001 16.75V15.25ZM14.7 16.75C15.1142 16.75 15.45 16.4142 15.45 16C15.45 15.5858 15.1142 15.25 14.7 15.25V16.75ZM21.2022 6.57874L17.8322 20.1088L19.2877 20.4713L22.6577 6.94128L21.2022 6.57874ZM17.8303 20.1166C17.672 20.7827 17.0787 21.25 16.38 21.25V22.75C17.7613 22.75 18.9679 21.8174 19.2897 20.4634L17.8303 20.1166ZM16.38 21.25H3.23998V22.75H16.38V21.25ZM3.23998 21.25C2.24253 21.25 1.51394 20.2665 1.81629 19.2922L0.383695 18.8476C-0.213956 20.7734 1.21742 22.75 3.23998 22.75V21.25ZM1.81608 19.2929L6.02607 5.77303L4.5939 5.32707L0.383907 18.847L1.81608 19.2929ZM6.02665 5.77115C6.22113 5.14078 6.80404 4.70996 7.45 4.70996V3.20996C6.13596 3.20996 4.97884 4.07932 4.59331 5.32895L6.02665 5.77115ZM7.45 4.70996H19.75V3.20996H7.45V4.70996ZM19.75 4.70996C20.3831 4.70996 20.9074 5.0944 21.1267 5.62596L22.5133 5.05397C22.0726 3.98553 21.0169 3.20996 19.75 3.20996V4.70996ZM21.134 5.64309C21.2526 5.91146 21.2853 6.23237 21.2007 6.58498L22.6593 6.93504C22.8146 6.28765 22.7674 5.62847 22.506 5.03684L21.134 5.64309ZM16 22.75H20.78V21.25H16V22.75ZM20.78 22.75C22.5085 22.75 23.8582 21.2878 23.7382 19.5678L22.2418 19.6722C22.3018 20.5322 21.6315 21.25 20.78 21.25V22.75ZM23.738 19.5656L22.748 5.94563L21.252 6.05437L22.242 19.6744L23.738 19.5656ZM10.4092 6.55555L11.4492 2.2356L9.99083 1.88451L8.95083 6.20446L10.4092 6.55555ZM17.113 6.54878L18.053 2.20881L16.587 1.89129L15.647 6.23125L17.113 6.54878ZM7.70001 12.75H15.7V11.25H7.70001V12.75ZM6.70001 16.75H14.7V15.25H6.70001V16.75Z" fill="#292D32"/>
</svg>
