<svg width="24" height="24" viewBox="0 0 24 24" fill="none" xmlns="http://www.w3.org/2000/svg">
<path d="M12.75 6.44C12.75 6.02579 12.4142 5.69 12 5.69C11.5858 5.69 11.25 6.02579 11.25 6.44H12.75ZM11.25 9.77C11.25 10.1842 11.5858 10.52 12 10.52C12.4142 10.52 12.75 10.1842 12.75 9.77H11.25ZM4.73 13.04L4.08786 12.6525L4.08661 12.6546L4.73 13.04ZM3.46 15.16L2.81661 14.7746L2.81558 14.7763L3.46 15.16ZM4.66 18.41L4.42283 19.1215L4.42328 19.1217L4.66 18.41ZM19.39 18.41L19.6267 19.1217L19.6272 19.1215L19.39 18.41ZM20.59 15.16L21.2336 14.7749L21.2334 14.7746L20.59 15.16ZM19.32 13.04L19.9634 12.6546L19.9621 12.6525L19.32 13.04ZM18.69 8.66L19.44 8.66L19.44 8.65795L18.69 8.66ZM11.25 6.44V9.77H12.75V6.44H11.25ZM12.02 1.25C7.92579 1.25 4.61 4.56579 4.61 8.66H6.11C6.11 5.39421 8.75421 2.75 12.02 2.75V1.25ZM4.61 8.66V10.76H6.11V8.66H4.61ZM4.61 10.76C4.61 11.0118 4.55562 11.3669 4.45324 11.7381C4.35074 12.1098 4.21603 12.4401 4.08786 12.6525L5.37214 13.4275C5.59397 13.0599 5.77426 12.5902 5.89926 12.1369C6.02438 11.6831 6.11 11.1882 6.11 10.76H4.61ZM4.08661 12.6546L2.81661 14.7746L4.10339 15.5454L5.37339 13.4254L4.08661 12.6546ZM2.81558 14.7763C2.32083 15.6072 2.22075 16.5354 2.52397 17.3562C2.82731 18.1773 3.50672 18.8161 4.42283 19.1215L4.89717 17.6985C4.37328 17.5239 4.06269 17.1927 3.93103 16.8363C3.79925 16.4796 3.81917 16.0228 4.10442 15.5437L2.81558 14.7763ZM4.42328 19.1217C9.35695 20.7628 14.693 20.7628 19.6267 19.1217L19.1533 17.6983C14.527 19.2372 9.52305 19.2372 4.89672 17.6983L4.42328 19.1217ZM19.6272 19.1215C21.4348 18.519 22.2083 16.4038 21.2336 14.7749L19.9464 15.5451C20.4317 16.3562 20.0452 17.401 19.1528 17.6985L19.6272 19.1215ZM21.2334 14.7746L19.9634 12.6546L18.6766 13.4254L19.9466 15.5454L21.2334 14.7746ZM19.9621 12.6525C19.8345 12.441 19.6997 12.1089 19.5969 11.7349C19.4942 11.3614 19.44 11.0064 19.44 10.76H17.94C17.94 11.1836 18.0258 11.6786 18.1506 12.1326C18.2753 12.5861 18.4555 13.059 18.6779 13.4275L19.9621 12.6525ZM19.44 10.76V8.66H17.94V10.76H19.44ZM19.44 8.65795C19.4289 4.58574 16.0946 1.25 12.02 1.25V2.75C15.2654 2.75 17.9311 5.41426 17.94 8.66205L19.44 8.65795ZM14.58 18.82C14.58 20.2358 13.4158 21.4 12 21.4V22.9C14.2442 22.9 16.08 21.0642 16.08 18.82H14.58ZM12 21.4C11.2999 21.4 10.6477 21.107 10.1803 20.6397L9.11967 21.7003C9.85234 22.433 10.8801 22.9 12 22.9V21.4ZM10.1803 20.6397C9.713 20.1723 9.42 19.5201 9.42 18.82H7.92C7.92 19.9399 8.387 20.9677 9.11967 21.7003L10.1803 20.6397Z" fill="#292D32"/>
</svg>
