<svg width="24" height="24" viewBox="0 0 24 24" fill="none" xmlns="http://www.w3.org/2000/svg">
<path d="M16.96 6.17C18.96 7.56 20.34 9.77 20.62 12.32M3.49 12.37C3.75 9.83 5.11 7.62 7.09 6.22M8.19 20.94C9.35 21.53 10.67 21.86 12.06 21.86C13.4 21.86 14.66 21.56 15.79 21.01M14.84 4.92C14.84 6.45535 13.5954 7.7 12.06 7.7C10.5247 7.7 9.28 6.45535 9.28 4.92C9.28 3.38465 10.5247 2.14 12.06 2.14C13.5954 2.14 14.84 3.38465 14.84 4.92ZM7.61 17.14C7.61 18.6754 6.36535 19.92 4.83 19.92C3.29465 19.92 2.05 18.6754 2.05 17.14C2.05 15.6046 3.29465 14.36 4.83 14.36C6.36535 14.36 7.61 15.6046 7.61 17.14ZM21.95 17.14C21.95 18.6754 20.7054 19.92 19.17 19.92C17.6347 19.92 16.39 18.6754 16.39 17.14C16.39 15.6046 17.6347 14.36 19.17 14.36C20.7054 14.36 21.95 15.6046 21.95 17.14Z" stroke="#007BFF" stroke-width="1.5" stroke-linecap="round" stroke-linejoin="round"/>
</svg>
